<svg width="555" height="264" viewBox="0 0 555 264" fill="none" xmlns="http://www.w3.org/2000/svg">
<path d="M34.3 102H21L0.9 50.3H15.4L28.1 87.5L40.8 50.3H54.5L34.3 102ZM83.0109 103.5C77.7109 103.5 73.1109 102.4 69.3109 100.1C65.4109 97.9 62.5109 94.7 60.4109 90.6C58.3109 86.5 57.3109 81.6 57.3109 75.9C57.3109 70.8 58.3109 66.1 60.4109 62C62.4109 57.9 65.3109 54.7 69.1109 52.3C72.9109 50 77.4109 48.8 82.7109 48.8C90.3109 48.8 96.1109 51.2 100.211 56.1C104.311 61 106.311 67.5 106.311 75.6V80.2H70.1109C71.2109 88.8 75.5109 93.1 83.1109 93.1C85.6109 93.1 87.6109 92.7 89.3109 91.9C90.9109 91.1 92.0109 90.1 92.6109 88.8H105.411C104.111 93.3 101.511 96.9 97.6109 99.5C93.6109 102.2 88.7109 103.5 83.0109 103.5ZM82.6109 59.2C79.1109 59.2 76.3109 60.2 74.2109 62.2C72.1109 64.3 70.7109 67.2 70.1109 71H93.9109C93.8109 67.5 92.8109 64.6 90.9109 62.4C89.0109 60.3 86.2109 59.2 82.6109 59.2ZM129.456 76.5V102H116.756V50.3H128.956V58.9C130.556 56 132.656 53.8 135.156 52.2C137.656 50.7 140.456 49.9 143.556 49.9H145.556V61.9H143.156C139.256 61.9 136.056 63.2 133.456 65.7C130.756 68.2 129.456 71.8 129.456 76.5ZM173.07 103.5C166.67 103.5 161.47 102 157.47 99C153.37 96.1 151.07 92.2 150.37 87.4H162.57C162.87 88.9 163.97 90.3 165.87 91.4C167.77 92.5 170.07 93.1 172.77 93.1C175.47 93.1 177.57 92.6 179.17 91.5C180.67 90.5 181.47 89.1 181.47 87.4C181.47 85.9 180.87 84.7 179.67 83.7C178.47 82.7 176.37 82 173.37 81.6L165.87 80.6C160.97 79.9 157.27 78.3 154.87 75.7C152.47 73.2 151.27 69.8 151.27 65.7C151.27 62.3 152.17 59.3 153.97 56.8C155.77 54.3 158.27 52.3 161.37 50.9C164.47 49.5 168.07 48.8 171.97 48.8C176.07 48.8 179.57 49.5 182.57 50.9C185.57 52.3 187.97 54.2 189.77 56.5C191.57 58.9 192.67 61.5 193.17 64.3H181.07C180.57 62.7 179.57 61.4 178.07 60.5C176.47 59.6 174.47 59.2 172.17 59.2C169.67 59.2 167.57 59.7 166.07 60.8C164.57 61.9 163.77 63.3 163.77 65C163.77 66.5 164.37 67.6 165.57 68.3C166.77 69.1 168.77 69.7 171.57 70.1L178.97 71.1C183.97 71.8 187.77 73.6 190.27 76.5C192.77 79.4 194.07 82.8 194.07 86.9C194.07 90.3 193.17 93.2 191.37 95.7C189.47 98.2 186.97 100.1 183.87 101.4C180.67 102.8 177.07 103.5 173.07 103.5ZM226.663 103.5C221.363 103.5 216.763 102.4 212.963 100.1C209.063 97.9 206.163 94.7 204.063 90.6C201.963 86.5 200.963 81.6 200.963 75.9C200.963 70.8 201.963 66.1 204.063 62C206.063 57.9 208.963 54.7 212.763 52.3C216.563 50 221.063 48.8 226.363 48.8C233.963 48.8 239.763 51.2 243.863 56.1C247.963 61 249.963 67.5 249.963 75.6V80.2H213.763C214.863 88.8 219.163 93.1 226.763 93.1C229.263 93.1 231.263 92.7 232.963 91.9C234.563 91.1 235.663 90.1 236.263 88.8H249.063C247.763 93.3 245.163 96.9 241.263 99.5C237.263 102.2 232.363 103.5 226.663 103.5ZM226.263 59.2C222.763 59.2 219.963 60.2 217.863 62.2C215.763 64.3 214.363 67.2 213.763 71H237.563C237.463 67.5 236.463 64.6 234.563 62.4C232.663 60.3 229.863 59.2 226.263 59.2ZM292.809 80.8V50.3H305.509V102H293.309V96C291.609 98.4 289.609 100.2 287.109 101.5C284.609 102.9 281.909 103.5 278.809 103.5C272.809 103.5 268.209 101.5 264.909 97.6C261.609 93.7 260.009 88.6 260.009 82.3V50.3H272.709V80.8C272.709 84.1 273.609 86.8 275.309 88.9C277.009 91 279.409 92.1 282.609 92.1C285.609 92.1 288.109 91.1 290.009 89C291.909 87 292.809 84.3 292.809 80.8ZM338.109 103.5C331.709 103.5 326.509 102 322.509 99C318.409 96.1 316.109 92.2 315.409 87.4H327.609C327.909 88.9 329.009 90.3 330.909 91.4C332.809 92.5 335.109 93.1 337.809 93.1C340.509 93.1 342.609 92.6 344.209 91.5C345.709 90.5 346.509 89.1 346.509 87.4C346.509 85.9 345.909 84.7 344.709 83.7C343.509 82.7 341.409 82 338.409 81.6L330.909 80.6C326.009 79.9 322.309 78.3 319.909 75.7C317.509 73.2 316.309 69.8 316.309 65.7C316.309 62.3 317.209 59.3 319.009 56.8C320.809 54.3 323.309 52.3 326.409 50.9C329.509 49.5 333.109 48.8 337.009 48.8C341.109 48.8 344.609 49.5 347.609 50.9C350.609 52.3 353.009 54.2 354.809 56.5C356.609 58.9 357.709 61.5 358.209 64.3H346.109C345.609 62.7 344.609 61.4 343.109 60.5C341.509 59.6 339.509 59.2 337.209 59.2C334.709 59.2 332.609 59.7 331.109 60.8C329.609 61.9 328.809 63.3 328.809 65C328.809 66.5 329.409 67.6 330.609 68.3C331.809 69.1 333.809 69.7 336.609 70.1L344.009 71.1C349.009 71.8 352.809 73.6 355.309 76.5C357.809 79.4 359.109 82.8 359.109 86.9C359.109 90.3 358.209 93.2 356.409 95.7C354.509 98.2 352.009 100.1 348.909 101.4C345.709 102.8 342.109 103.5 338.109 103.5Z" fill="white"/>
<path d="M0.36 159.8L8.94 132.95H11.64L3.06 159.8H0.36ZM15.6117 132.2V140.12H13.2117V132.2H15.6117ZM26.0264 155H23.2664L17.2064 139.64H20.2364L24.7064 151.88L29.1764 139.64H32.0864L26.0264 155ZM40.1487 139.22C41.6787 139.22 42.9987 139.55 44.1087 140.21C45.2187 140.87 46.0587 141.8 46.6587 143.03C47.2587 144.26 47.5587 145.7 47.5587 147.35C47.5587 148.88 47.2587 150.26 46.6887 151.49C46.0887 152.72 45.2487 153.68 44.1687 154.37C43.0587 155.06 41.7687 155.42 40.2387 155.42C38.7987 155.42 37.5687 155.09 36.5787 154.43C35.5587 153.8 34.7787 152.9 34.2687 151.73C33.7587 150.59 33.4887 149.24 33.4887 147.71V146.45H44.7987C44.6487 144.89 44.1987 143.69 43.3887 142.85C42.5787 142.04 41.4987 141.62 40.1187 141.62C39.2187 141.62 38.4687 141.77 37.8387 142.07C37.2087 142.4 36.7887 142.79 36.5787 143.3H33.8187C34.1787 142.07 34.9287 141.08 36.0687 140.33C37.2087 139.58 38.5587 139.22 40.1487 139.22ZM40.2687 153.02C41.5287 153.02 42.5487 152.63 43.3287 151.85C44.0787 151.1 44.5587 150.02 44.7387 148.67H36.1887C36.2487 149.96 36.6087 151.01 37.2987 151.82C37.9587 152.63 38.9487 153.02 40.2687 153.02ZM53.6679 143.09L50.9979 138.92H56.3379L53.6679 143.09ZM50.9979 155L53.6679 150.83L56.3379 155H50.9979ZM66.1859 155.45C64.3859 155.45 62.9159 155.03 61.7459 154.16C60.5759 153.32 59.8859 152.24 59.6459 150.95H62.3459C62.4959 151.52 62.9159 152.03 63.6059 152.45C64.2659 152.87 65.1059 153.08 66.1259 153.08C67.1159 153.08 67.9259 152.87 68.5259 152.45C69.1259 152.06 69.4259 151.49 69.4259 150.77C69.4259 150.2 69.2159 149.72 68.7959 149.33C68.3759 148.97 67.6559 148.73 66.6359 148.58L64.2959 148.28C61.3859 147.92 59.9459 146.51 59.9459 144.02C59.9459 143.09 60.2159 142.28 60.7259 141.53C61.2359 140.81 61.9259 140.24 62.8259 139.82C63.6959 139.43 64.7159 139.22 65.8559 139.22C67.5059 139.22 68.8559 139.61 69.9059 140.42C70.9559 141.23 71.6159 142.25 71.8859 143.48H69.2159C69.0059 142.85 68.6459 142.4 68.0759 142.07C67.5059 141.74 66.7859 141.59 65.9159 141.59C64.9259 141.59 64.1459 141.8 63.5759 142.22C62.9759 142.67 62.6759 143.24 62.6759 143.93C62.6759 144.5 62.8859 144.95 63.3059 145.25C63.7259 145.55 64.4159 145.76 65.3759 145.88L67.7159 146.18C69.1859 146.36 70.2959 146.87 71.0459 147.68C71.7959 148.49 72.1559 149.51 72.1559 150.68C72.1559 151.64 71.8859 152.48 71.3759 153.2C70.8659 153.92 70.1459 154.46 69.2459 154.85C68.3159 155.27 67.2959 155.45 66.1859 155.45ZM81.3108 139.22C82.8408 139.22 84.1608 139.55 85.2708 140.21C86.3808 140.87 87.2208 141.8 87.8208 143.03C88.4208 144.26 88.7208 145.7 88.7208 147.35C88.7208 148.88 88.4208 150.26 87.8508 151.49C87.2508 152.72 86.4108 153.68 85.3308 154.37C84.2208 155.06 82.9308 155.42 81.4008 155.42C79.9608 155.42 78.7308 155.09 77.7408 154.43C76.7208 153.8 75.9408 152.9 75.4308 151.73C74.9208 150.59 74.6508 149.24 74.6508 147.71V146.45H85.9608C85.8108 144.89 85.3608 143.69 84.5508 142.85C83.7408 142.04 82.6608 141.62 81.2808 141.62C80.3808 141.62 79.6308 141.77 79.0008 142.07C78.3708 142.4 77.9508 142.79 77.7408 143.3H74.9808C75.3408 142.07 76.0908 141.08 77.2308 140.33C78.3708 139.58 79.7208 139.22 81.3108 139.22ZM81.4308 153.02C82.6908 153.02 83.7108 152.63 84.4908 151.85C85.2408 151.1 85.7208 150.02 85.9008 148.67H77.3508C77.4108 149.96 77.7708 151.01 78.4608 151.82C79.1208 152.63 80.1108 153.02 81.4308 153.02ZM97.68 155.45C95.88 155.45 94.41 155.03 93.24 154.16C92.07 153.32 91.38 152.24 91.14 150.95H93.84C93.99 151.52 94.41 152.03 95.1 152.45C95.76 152.87 96.6 153.08 97.62 153.08C98.61 153.08 99.42 152.87 100.02 152.45C100.62 152.06 100.92 151.49 100.92 150.77C100.92 150.2 100.71 149.72 100.29 149.33C99.87 148.97 99.15 148.73 98.13 148.58L95.79 148.28C92.88 147.92 91.44 146.51 91.44 144.02C91.44 143.09 91.71 142.28 92.22 141.53C92.73 140.81 93.42 140.24 94.32 139.82C95.19 139.43 96.21 139.22 97.35 139.22C99 139.22 100.35 139.61 101.4 140.42C102.45 141.23 103.11 142.25 103.38 143.48H100.71C100.5 142.85 100.14 142.4 99.57 142.07C99 141.74 98.28 141.59 97.41 141.59C96.42 141.59 95.64 141.8 95.07 142.22C94.47 142.67 94.17 143.24 94.17 143.93C94.17 144.5 94.38 144.95 94.8 145.25C95.22 145.55 95.91 145.76 96.87 145.88L99.21 146.18C100.68 146.36 101.79 146.87 102.54 147.68C103.29 148.49 103.65 149.51 103.65 150.68C103.65 151.64 103.38 152.48 102.87 153.2C102.36 153.92 101.64 154.46 100.74 154.85C99.81 155.27 98.79 155.45 97.68 155.45ZM105.155 159.8L113.735 132.95H116.435L107.855 159.8H105.155Z" fill="white" fill-opacity="0.8"/>
<path d="M22.4877 210.14C21.7977 210.14 21.1977 209.96 20.6277 209.63C20.0577 209.3 19.6377 208.88 19.3077 208.31C18.9777 207.74 18.7977 207.14 18.7977 206.45C18.7977 205.76 18.9777 205.16 19.3077 204.59C19.6377 204.02 20.0577 203.57 20.6277 203.24C21.1977 202.91 21.7977 202.76 22.4877 202.76C23.1777 202.76 23.7777 202.91 24.3477 203.24C24.9177 203.57 25.3677 204.02 25.6977 204.59C26.0277 205.16 26.1777 205.76 26.1777 206.45C26.1777 207.14 26.0277 207.74 25.6977 208.31C25.3677 208.88 24.9177 209.3 24.3477 209.63C23.7777 209.96 23.1777 210.14 22.4877 210.14ZM56.19 218H53.82V199.25H46.23V197.12H63.78V199.25H56.19V218ZM67.3798 218V196.25H69.5998V204.83C70.1398 204.02 70.8298 203.42 71.6998 202.97C72.5398 202.52 73.4398 202.31 74.4298 202.31C75.5998 202.31 76.5898 202.58 77.3998 203.12C78.2098 203.66 78.8098 204.38 79.2598 205.31C79.6798 206.24 79.8898 207.32 79.8898 208.55V218H77.6698V209C77.6698 207.56 77.3698 206.42 76.7398 205.61C76.1098 204.8 75.1498 204.38 73.9198 204.38C73.1698 204.38 72.4798 204.56 71.8198 204.89C71.1598 205.25 70.6198 205.76 70.2298 206.42C69.8098 207.11 69.5998 207.92 69.5998 208.91V218H67.3798ZM90.7891 218.39C89.2891 218.39 87.9991 218.06 86.9191 217.4C85.8091 216.74 84.9691 215.81 84.3991 214.61C83.7991 213.41 83.4991 212 83.4991 210.35C83.4991 208.82 83.7991 207.44 84.3691 206.21C84.9391 204.98 85.7491 204.02 86.8291 203.33C87.8791 202.64 89.1691 202.31 90.6691 202.31C92.0791 202.31 93.3091 202.64 94.2991 203.27C95.2891 203.9 96.0391 204.8 96.5491 205.91C97.0591 207.05 97.2991 208.37 97.2991 209.87V211.07H85.7791C85.8991 212.78 86.4091 214.07 87.2791 214.97C88.1491 215.9 89.3191 216.35 90.7891 216.35C91.7791 216.35 92.5891 216.17 93.2791 215.81C93.9691 215.48 94.4191 215 94.6291 214.43H96.9691C96.6091 215.66 95.8591 216.62 94.7491 217.31C93.6391 218.03 92.3191 218.39 90.7891 218.39ZM90.6691 204.35C89.2891 204.35 88.1791 204.77 87.3391 205.64C86.4991 206.51 85.9891 207.68 85.8091 209.15H95.0491C95.0191 207.74 94.6291 206.57 93.8791 205.67C93.1291 204.8 92.0791 204.35 90.6691 204.35ZM112.211 218.39C110.681 218.39 109.421 217.97 108.461 217.13C107.501 216.29 107.021 215.15 107.021 213.71C107.021 212.18 107.591 210.98 108.701 210.14C109.811 209.3 111.401 208.88 113.471 208.88H117.311V208.13C117.311 206.78 116.981 205.79 116.291 205.22C115.601 204.65 114.671 204.35 113.501 204.35C112.511 204.35 111.671 204.53 111.041 204.92C110.381 205.31 109.961 205.82 109.811 206.39H107.531C107.801 205.16 108.461 204.17 109.541 203.42C110.621 202.67 111.941 202.31 113.501 202.31C115.361 202.31 116.831 202.79 117.911 203.75C118.991 204.71 119.531 206.21 119.531 208.28V218H117.401V215.6C116.861 216.53 116.111 217.25 115.181 217.7C114.221 218.15 113.231 218.39 112.211 218.39ZM112.631 216.41C113.351 216.41 114.071 216.26 114.791 215.93C115.511 215.6 116.111 215.12 116.591 214.46C117.071 213.83 117.311 213.02 117.311 212.03V210.77H113.591C112.211 210.77 111.131 211.01 110.381 211.49C109.631 211.97 109.241 212.69 109.241 213.62C109.241 214.52 109.571 215.21 110.201 215.69C110.831 216.17 111.641 216.41 112.631 216.41ZM130.308 218.39C128.898 218.39 127.638 218.06 126.558 217.37C125.478 216.71 124.638 215.78 124.038 214.55C123.438 213.35 123.138 211.94 123.138 210.35C123.138 208.76 123.438 207.38 124.038 206.18C124.638 204.98 125.478 204.02 126.558 203.33C127.638 202.64 128.898 202.31 130.308 202.31C132.018 202.31 133.398 202.76 134.508 203.69C135.588 204.62 136.248 205.76 136.488 207.17H134.148C133.998 206.36 133.608 205.7 132.948 205.16C132.288 204.62 131.418 204.35 130.308 204.35C129.348 204.35 128.508 204.59 127.758 205.1C127.008 205.61 126.438 206.3 126.018 207.2C125.598 208.13 125.388 209.18 125.388 210.35C125.388 212.18 125.838 213.62 126.768 214.7C127.698 215.78 128.868 216.32 130.308 216.32C131.418 216.32 132.288 216.05 132.948 215.54C133.608 215.03 134.028 214.37 134.178 213.53H136.488C136.278 214.91 135.618 216.05 134.538 216.98C133.428 217.91 132.018 218.39 130.308 218.39ZM145.405 218.12C143.965 218.12 142.885 217.73 142.135 216.92C141.385 216.14 141.025 215 141.025 213.47V204.71H138.205V202.7H141.025V197.72C141.415 197.69 141.775 197.66 142.165 197.57C142.525 197.48 142.885 197.39 143.245 197.27V202.7H146.695V204.71H143.245V213.29C143.245 215.18 144.085 216.11 145.735 216.11H146.695V218.12H145.405ZM163.356 218.39C161.946 218.39 160.686 218.06 159.606 217.37C158.496 216.68 157.656 215.75 157.056 214.52C156.426 213.32 156.126 211.94 156.126 210.35C156.126 208.76 156.426 207.38 157.056 206.15C157.656 204.95 158.496 204.02 159.606 203.33C160.686 202.64 161.946 202.31 163.356 202.31C164.766 202.31 166.026 202.64 167.136 203.33C168.216 204.02 169.056 204.95 169.686 206.15C170.286 207.38 170.586 208.76 170.586 210.35C170.586 211.94 170.286 213.32 169.686 214.52C169.056 215.75 168.216 216.68 167.136 217.37C166.026 218.06 164.766 218.39 163.356 218.39ZM163.356 216.32C164.826 216.32 166.026 215.78 166.956 214.67C167.886 213.59 168.336 212.15 168.336 210.35C168.336 208.55 167.886 207.11 166.956 206C166.026 204.92 164.826 204.38 163.356 204.38C161.886 204.38 160.716 204.92 159.786 206C158.856 207.11 158.376 208.55 158.376 210.35C158.376 212.15 158.856 213.59 159.786 214.67C160.716 215.78 161.886 216.32 163.356 216.32ZM172.483 202.7H175.303V201.14C175.303 199.61 175.723 198.41 176.533 197.54C177.343 196.67 178.483 196.25 180.013 196.25H181.003V198.26H180.283C179.383 198.26 178.693 198.53 178.243 199.04C177.763 199.58 177.523 200.33 177.523 201.26V202.7H181.003V204.71H177.523V218H175.303V204.71H172.483V202.7ZM192.357 200.36C191.907 200.36 191.517 200.18 191.187 199.85C190.857 199.52 190.677 199.13 190.677 198.68C190.677 198.23 190.857 197.81 191.187 197.48C191.517 197.15 191.907 197 192.357 197C192.807 197 193.227 197.15 193.557 197.48C193.887 197.81 194.037 198.23 194.037 198.68C194.037 199.13 193.887 199.52 193.557 199.85C193.227 200.18 192.807 200.36 192.357 200.36ZM191.247 218V202.7H193.467V218H191.247ZM204.07 218.39C202.72 218.39 201.52 218.06 200.5 217.37C199.48 216.68 198.67 215.75 198.1 214.52C197.53 213.32 197.23 211.94 197.23 210.35C197.23 208.76 197.53 207.38 198.1 206.15C198.67 204.95 199.48 204.02 200.5 203.33C201.52 202.64 202.72 202.31 204.07 202.31C205.21 202.31 206.23 202.58 207.13 203.09C208 203.63 208.72 204.38 209.29 205.31V196.25H211.51V218H209.35V215.3C208.78 216.26 208.06 217.01 207.19 217.55C206.29 218.12 205.24 218.39 204.07 218.39ZM204.4 216.32C205.39 216.32 206.26 216.08 207.01 215.57C207.76 215.06 208.33 214.37 208.78 213.47C209.2 212.57 209.41 211.52 209.41 210.35C209.41 209.18 209.2 208.13 208.78 207.23C208.33 206.33 207.76 205.64 207.01 205.13C206.26 204.62 205.39 204.38 204.4 204.38C203.44 204.38 202.6 204.62 201.85 205.13C201.1 205.64 200.53 206.33 200.11 207.23C199.69 208.13 199.48 209.18 199.48 210.35C199.48 211.52 199.69 212.57 200.11 213.47C200.53 214.37 201.1 215.06 201.85 215.57C202.6 216.08 203.44 216.32 204.4 216.32ZM222.537 218.39C221.037 218.39 219.747 218.06 218.667 217.4C217.557 216.74 216.717 215.81 216.147 214.61C215.547 213.41 215.247 212 215.247 210.35C215.247 208.82 215.547 207.44 216.117 206.21C216.687 204.98 217.497 204.02 218.577 203.33C219.627 202.64 220.917 202.31 222.417 202.31C223.827 202.31 225.057 202.64 226.047 203.27C227.037 203.9 227.787 204.8 228.297 205.91C228.807 207.05 229.047 208.37 229.047 209.87V211.07H217.527C217.647 212.78 218.157 214.07 219.027 214.97C219.897 215.9 221.067 216.35 222.537 216.35C223.527 216.35 224.337 216.17 225.027 215.81C225.717 215.48 226.167 215 226.377 214.43H228.717C228.357 215.66 227.607 216.62 226.497 217.31C225.387 218.03 224.067 218.39 222.537 218.39ZM222.417 204.35C221.037 204.35 219.927 204.77 219.087 205.64C218.247 206.51 217.737 207.68 217.557 209.15H226.797C226.767 207.74 226.377 206.57 225.627 205.67C224.877 204.8 223.827 204.35 222.417 204.35ZM235.069 208.91V218H232.849V202.7H235.009V204.92C235.549 204.08 236.239 203.42 237.109 202.97C237.979 202.52 238.909 202.31 239.899 202.31C241.069 202.31 242.059 202.58 242.869 203.12C243.679 203.66 244.279 204.38 244.729 205.31C245.149 206.24 245.359 207.32 245.359 208.55V218H243.139V209C243.139 207.56 242.839 206.42 242.209 205.61C241.579 204.8 240.619 204.38 239.389 204.38C238.639 204.38 237.949 204.56 237.289 204.89C236.629 205.25 236.089 205.76 235.699 206.42C235.279 207.11 235.069 207.92 235.069 208.91ZM255.298 218.12C253.858 218.12 252.778 217.73 252.028 216.92C251.278 216.14 250.918 215 250.918 213.47V204.71H248.098V202.7H250.918V197.72C251.308 197.69 251.668 197.66 252.058 197.57C252.418 197.48 252.778 197.39 253.138 197.27V202.7H256.588V204.71H253.138V213.29C253.138 215.18 253.978 216.11 255.628 216.11H256.588V218.12H255.298ZM261.058 200.36C260.608 200.36 260.218 200.18 259.888 199.85C259.558 199.52 259.378 199.13 259.378 198.68C259.378 198.23 259.558 197.81 259.888 197.48C260.218 197.15 260.608 197 261.058 197C261.508 197 261.928 197.15 262.258 197.48C262.588 197.81 262.738 198.23 262.738 198.68C262.738 199.13 262.588 199.52 262.258 199.85C261.928 200.18 261.508 200.36 261.058 200.36ZM259.948 218V202.7H262.168V218H259.948ZM265.061 202.7H267.881V201.14C267.881 199.61 268.301 198.41 269.111 197.54C269.921 196.67 271.061 196.25 272.591 196.25H273.581V198.26H272.861C271.961 198.26 271.271 198.53 270.821 199.04C270.341 199.58 270.101 200.33 270.101 201.26V202.7H273.581V204.71H270.101V218H267.881V204.71H265.061V202.7ZM278.678 224.15L281.198 218L275.108 202.7H277.628L282.397 215.39L287.108 202.7H289.508L281.018 224.15H278.678ZM293.431 200.36C292.981 200.36 292.591 200.18 292.261 199.85C291.931 199.52 291.751 199.13 291.751 198.68C291.751 198.23 291.931 197.81 292.261 197.48C292.591 197.15 292.981 197 293.431 197C293.881 197 294.301 197.15 294.631 197.48C294.961 197.81 295.111 198.23 295.111 198.68C295.111 199.13 294.961 199.52 294.631 199.85C294.301 200.18 293.881 200.36 293.431 200.36ZM292.321 218V202.7H294.541V218H292.321ZM301.514 208.91V218H299.294V202.7H301.454V204.92C301.994 204.08 302.684 203.42 303.554 202.97C304.424 202.52 305.354 202.31 306.344 202.31C307.514 202.31 308.504 202.58 309.314 203.12C310.124 203.66 310.724 204.38 311.174 205.31C311.594 206.24 311.804 207.32 311.804 208.55V218H309.584V209C309.584 207.56 309.284 206.42 308.654 205.61C308.024 204.8 307.064 204.38 305.834 204.38C305.084 204.38 304.394 204.56 303.734 204.89C303.074 205.25 302.534 205.76 302.144 206.42C301.724 207.11 301.514 207.92 301.514 208.91ZM322.253 218.15C320.903 218.15 319.703 217.82 318.683 217.13C317.663 216.44 316.853 215.51 316.283 214.31C315.713 213.14 315.413 211.76 315.413 210.23C315.413 208.7 315.713 207.32 316.283 206.12C316.853 204.95 317.663 204.02 318.683 203.33C319.703 202.64 320.903 202.31 322.253 202.31C323.423 202.31 324.473 202.58 325.373 203.15C326.273 203.72 326.993 204.47 327.533 205.43V202.7H329.693V217.61C329.693 219.8 329.093 221.51 327.923 222.74C326.723 223.97 325.043 224.57 322.913 224.57C321.143 224.57 319.643 224.18 318.473 223.37C317.273 222.56 316.493 221.57 316.103 220.34H318.533C318.863 220.97 319.373 221.48 320.093 221.9C320.783 222.29 321.713 222.5 322.883 222.5C325.943 222.5 327.473 220.91 327.473 217.7V215.12C326.903 216.05 326.183 216.8 325.313 217.34C324.443 217.88 323.423 218.15 322.253 218.15ZM322.583 216.08C323.573 216.08 324.413 215.84 325.163 215.33C325.913 214.82 326.483 214.13 326.903 213.26C327.323 212.39 327.533 211.37 327.563 210.23C327.593 209.09 327.383 208.07 326.963 207.2C326.513 206.33 325.943 205.64 325.193 205.13C324.443 204.62 323.573 204.38 322.583 204.38C321.593 204.38 320.753 204.62 320.033 205.13C319.283 205.64 318.713 206.33 318.293 207.2C317.873 208.07 317.663 209.09 317.663 210.23C317.663 211.37 317.873 212.39 318.293 213.26C318.713 214.13 319.283 214.82 320.033 215.33C320.753 215.84 321.593 216.08 322.583 216.08ZM346.821 218.12C345.381 218.12 344.301 217.73 343.551 216.92C342.801 216.14 342.441 215 342.441 213.47V204.71H339.621V202.7H342.441V197.72C342.831 197.69 343.191 197.66 343.581 197.57C343.941 197.48 344.301 197.39 344.661 197.27V202.7H348.111V204.71H344.661V213.29C344.661 215.18 345.501 216.11 347.151 216.11H348.111V218.12H346.821ZM351.472 218V196.25H353.692V204.83C354.232 204.02 354.922 203.42 355.792 202.97C356.632 202.52 357.532 202.31 358.522 202.31C359.692 202.31 360.682 202.58 361.492 203.12C362.302 203.66 362.902 204.38 363.352 205.31C363.772 206.24 363.982 207.32 363.982 208.55V218H361.762V209C361.762 207.56 361.462 206.42 360.832 205.61C360.202 204.8 359.242 204.38 358.012 204.38C357.262 204.38 356.572 204.56 355.912 204.89C355.252 205.25 354.712 205.76 354.322 206.42C353.902 207.11 353.692 207.92 353.692 208.91V218H351.472ZM374.881 218.39C373.381 218.39 372.091 218.06 371.011 217.4C369.901 216.74 369.061 215.81 368.491 214.61C367.891 213.41 367.591 212 367.591 210.35C367.591 208.82 367.891 207.44 368.461 206.21C369.031 204.98 369.841 204.02 370.921 203.33C371.971 202.64 373.261 202.31 374.761 202.31C376.171 202.31 377.401 202.64 378.391 203.27C379.381 203.9 380.131 204.8 380.641 205.91C381.151 207.05 381.391 208.37 381.391 209.87V211.07H369.871C369.991 212.78 370.501 214.07 371.371 214.97C372.241 215.9 373.411 216.35 374.881 216.35C375.871 216.35 376.681 216.17 377.371 215.81C378.061 215.48 378.511 215 378.721 214.43H381.061C380.701 215.66 379.951 216.62 378.841 217.31C377.731 218.03 376.411 218.39 374.881 218.39ZM374.761 204.35C373.381 204.35 372.271 204.77 371.431 205.64C370.591 206.51 370.081 207.68 369.901 209.15H379.141C379.111 207.74 378.721 206.57 377.971 205.67C377.221 204.8 376.171 204.35 374.761 204.35ZM397.593 218.12C396.153 218.12 395.073 217.73 394.323 216.92C393.573 216.14 393.213 215 393.213 213.47V204.71H390.393V202.7H393.213V197.72C393.603 197.69 393.963 197.66 394.353 197.57C394.713 197.48 395.073 197.39 395.433 197.27V202.7H398.883V204.71H395.433V213.29C395.433 215.18 396.273 216.11 397.923 216.11H398.883V218.12H397.593ZM403.353 200.36C402.903 200.36 402.513 200.18 402.183 199.85C401.853 199.52 401.673 199.13 401.673 198.68C401.673 198.23 401.853 197.81 402.183 197.48C402.513 197.15 402.903 197 403.353 197C403.803 197 404.223 197.15 404.553 197.48C404.883 197.81 405.033 198.23 405.033 198.68C405.033 199.13 404.883 199.52 404.553 199.85C404.223 200.18 403.803 200.36 403.353 200.36ZM402.243 218V202.7H404.463V218H402.243ZM414.556 218.12C413.116 218.12 412.036 217.73 411.286 216.92C410.536 216.14 410.176 215 410.176 213.47V204.71H407.356V202.7H410.176V197.72C410.566 197.69 410.926 197.66 411.316 197.57C411.676 197.48 412.036 197.39 412.396 197.27V202.7H415.846V204.71H412.396V213.29C412.396 215.18 413.236 216.11 414.886 216.11H415.846V218.12H414.556ZM419.206 218V196.25H421.426V218H419.206ZM432.479 218.39C430.979 218.39 429.689 218.06 428.609 217.4C427.499 216.74 426.659 215.81 426.089 214.61C425.489 213.41 425.189 212 425.189 210.35C425.189 208.82 425.489 207.44 426.059 206.21C426.629 204.98 427.439 204.02 428.519 203.33C429.569 202.64 430.859 202.31 432.359 202.31C433.769 202.31 434.999 202.64 435.989 203.27C436.979 203.9 437.729 204.8 438.239 205.91C438.749 207.05 438.989 208.37 438.989 209.87V211.07H427.469C427.589 212.78 428.099 214.07 428.969 214.97C429.839 215.9 431.009 216.35 432.479 216.35C433.469 216.35 434.279 216.17 434.969 215.81C435.659 215.48 436.109 215 436.319 214.43H438.659C438.299 215.66 437.549 216.62 436.439 217.31C435.329 218.03 434.009 218.39 432.479 218.39ZM432.359 204.35C430.979 204.35 429.869 204.77 429.029 205.64C428.189 206.51 427.679 207.68 427.499 209.15H436.739C436.709 207.74 436.319 206.57 435.569 205.67C434.819 204.8 433.769 204.35 432.359 204.35ZM456.09 218.39C454.68 218.39 453.42 218.06 452.34 217.37C451.23 216.68 450.39 215.75 449.79 214.52C449.16 213.32 448.86 211.94 448.86 210.35C448.86 208.76 449.16 207.38 449.79 206.15C450.39 204.95 451.23 204.02 452.34 203.33C453.42 202.64 454.68 202.31 456.09 202.31C457.5 202.31 458.76 202.64 459.87 203.33C460.95 204.02 461.79 204.95 462.42 206.15C463.02 207.38 463.32 208.76 463.32 210.35C463.32 211.94 463.02 213.32 462.42 214.52C461.79 215.75 460.95 216.68 459.87 217.37C458.76 218.06 457.5 218.39 456.09 218.39ZM456.09 216.32C457.56 216.32 458.76 215.78 459.69 214.67C460.62 213.59 461.07 212.15 461.07 210.35C461.07 208.55 460.62 207.11 459.69 206C458.76 204.92 457.56 204.38 456.09 204.38C454.62 204.38 453.45 204.92 452.52 206C451.59 207.11 451.11 208.55 451.11 210.35C451.11 212.15 451.59 213.59 452.52 214.67C453.45 215.78 454.62 216.32 456.09 216.32ZM465.217 202.7H468.037V201.14C468.037 199.61 468.457 198.41 469.267 197.54C470.077 196.67 471.217 196.25 472.747 196.25H473.737V198.26H473.017C472.117 198.26 471.427 198.53 470.977 199.04C470.497 199.58 470.257 200.33 470.257 201.26V202.7H473.737V204.71H470.257V218H468.037V204.71H465.217V202.7ZM488.031 218.39C486.501 218.39 485.241 217.97 484.281 217.13C483.321 216.29 482.841 215.15 482.841 213.71C482.841 212.18 483.411 210.98 484.521 210.14C485.631 209.3 487.221 208.88 489.291 208.88H493.131V208.13C493.131 206.78 492.801 205.79 492.111 205.22C491.421 204.65 490.491 204.35 489.321 204.35C488.331 204.35 487.491 204.53 486.861 204.92C486.201 205.31 485.781 205.82 485.631 206.39H483.351C483.621 205.16 484.281 204.17 485.361 203.42C486.441 202.67 487.761 202.31 489.321 202.31C491.181 202.31 492.651 202.79 493.731 203.75C494.811 204.71 495.351 206.21 495.351 208.28V218H493.221V215.6C492.681 216.53 491.931 217.25 491.001 217.7C490.041 218.15 489.051 218.39 488.031 218.39ZM488.451 216.41C489.171 216.41 489.891 216.26 490.611 215.93C491.331 215.6 491.931 215.12 492.411 214.46C492.891 213.83 493.131 213.02 493.131 212.03V210.77H489.411C488.031 210.77 486.951 211.01 486.201 211.49C485.451 211.97 485.061 212.69 485.061 213.62C485.061 214.52 485.391 215.21 486.021 215.69C486.651 216.17 487.461 216.41 488.451 216.41ZM52.62 256.45C50.85 256.45 49.41 256.03 48.3 255.19C47.16 254.38 46.47 253.33 46.2 252.07H48.48C48.63 252.7 49.08 253.27 49.83 253.72C50.58 254.2 51.48 254.44 52.59 254.44C53.67 254.44 54.54 254.2 55.2 253.75C55.86 253.3 56.19 252.64 56.19 251.83C56.19 251.2 55.98 250.66 55.53 250.27C55.08 249.88 54.3 249.61 53.22 249.46L50.85 249.16C47.94 248.8 46.5 247.42 46.5 244.99C46.5 244.09 46.74 243.28 47.25 242.59C47.76 241.9 48.45 241.33 49.32 240.91C50.19 240.52 51.18 240.31 52.29 240.31C53.85 240.31 55.14 240.67 56.19 241.42C57.21 242.17 57.87 243.16 58.2 244.39H55.92C55.71 243.73 55.29 243.22 54.66 242.86C54.03 242.5 53.28 242.32 52.35 242.32C51.24 242.32 50.37 242.56 49.74 243.04C49.11 243.55 48.78 244.18 48.78 244.93C48.78 245.56 49.02 246.04 49.47 246.37C49.92 246.7 50.64 246.94 51.69 247.09L54.06 247.39C55.5 247.57 56.61 248.05 57.36 248.83C58.11 249.61 58.47 250.6 58.47 251.77C58.47 252.7 58.23 253.54 57.72 254.23C57.21 254.95 56.49 255.49 55.62 255.88C54.75 256.27 53.73 256.45 52.62 256.45ZM68.2877 256.39C66.8777 256.39 65.6177 256.06 64.5377 255.37C63.4277 254.68 62.5877 253.75 61.9877 252.52C61.3577 251.32 61.0577 249.94 61.0577 248.35C61.0577 246.76 61.3577 245.38 61.9877 244.15C62.5877 242.95 63.4277 242.02 64.5377 241.33C65.6177 240.64 66.8777 240.31 68.2877 240.31C69.6977 240.31 70.9577 240.64 72.0677 241.33C73.1477 242.02 73.9877 242.95 74.6177 244.15C75.2177 245.38 75.5177 246.76 75.5177 248.35C75.5177 249.94 75.2177 251.32 74.6177 252.52C73.9877 253.75 73.1477 254.68 72.0677 255.37C70.9577 256.06 69.6977 256.39 68.2877 256.39ZM68.2877 254.32C69.7577 254.32 70.9577 253.78 71.8877 252.67C72.8177 251.59 73.2677 250.15 73.2677 248.35C73.2677 246.55 72.8177 245.11 71.8877 244C70.9577 242.92 69.7577 242.38 68.2877 242.38C66.8177 242.38 65.6477 242.92 64.7177 244C63.7877 245.11 63.3077 246.55 63.3077 248.35C63.3077 250.15 63.7877 251.59 64.7177 252.67C65.6477 253.78 66.8177 254.32 68.2877 254.32ZM81.4943 246.91V256H79.2743V240.7H81.4343V242.92C81.9743 242.08 82.6643 241.42 83.5343 240.97C84.4043 240.52 85.3343 240.31 86.3243 240.31C87.4943 240.31 88.4843 240.58 89.2943 241.12C90.1043 241.66 90.7043 242.38 91.1543 243.31C91.5743 244.24 91.7843 245.32 91.7843 246.55V256H89.5643V247C89.5643 245.56 89.2643 244.42 88.6343 243.61C88.0043 242.8 87.0443 242.38 85.8143 242.38C85.0643 242.38 84.3743 242.56 83.7143 242.89C83.0543 243.25 82.5143 243.76 82.1243 244.42C81.7043 245.11 81.4943 245.92 81.4943 246.91ZM102.234 256.15C100.884 256.15 99.6837 255.82 98.6637 255.13C97.6437 254.44 96.8337 253.51 96.2637 252.31C95.6937 251.14 95.3937 249.76 95.3937 248.23C95.3937 246.7 95.6937 245.32 96.2637 244.12C96.8337 242.95 97.6437 242.02 98.6637 241.33C99.6837 240.64 100.884 240.31 102.234 240.31C103.404 240.31 104.454 240.58 105.354 241.15C106.254 241.72 106.974 242.47 107.514 243.43V240.7H109.674V255.61C109.674 257.8 109.074 259.51 107.904 260.74C106.704 261.97 105.024 262.57 102.894 262.57C101.124 262.57 99.6237 262.18 98.4537 261.37C97.2537 260.56 96.4737 259.57 96.0837 258.34H98.5137C98.8437 258.97 99.3537 259.48 100.074 259.9C100.764 260.29 101.694 260.5 102.864 260.5C105.924 260.5 107.454 258.91 107.454 255.7V253.12C106.884 254.05 106.164 254.8 105.294 255.34C104.424 255.88 103.404 256.15 102.234 256.15ZM102.564 254.08C103.554 254.08 104.394 253.84 105.144 253.33C105.894 252.82 106.464 252.13 106.884 251.26C107.304 250.39 107.514 249.37 107.544 248.23C107.574 247.09 107.364 246.07 106.944 245.2C106.494 244.33 105.924 243.64 105.174 243.13C104.424 242.62 103.554 242.38 102.564 242.38C101.574 242.38 100.734 242.62 100.014 243.13C99.2637 243.64 98.6937 244.33 98.2737 245.2C97.8537 246.07 97.6437 247.09 97.6437 248.23C97.6437 249.37 97.8537 250.39 98.2737 251.26C98.6937 252.13 99.2637 252.82 100.014 253.33C100.734 253.84 101.574 254.08 102.564 254.08ZM119.602 240.7H122.422V239.14C122.422 237.61 122.842 236.41 123.652 235.54C124.462 234.67 125.602 234.25 127.132 234.25H128.122V236.26H127.402C126.502 236.26 125.812 236.53 125.362 237.04C124.882 237.58 124.642 238.33 124.642 239.26V240.7H128.122V242.71H124.642V256H122.422V242.71H119.602V240.7ZM135.063 256.39C133.533 256.39 132.273 255.97 131.313 255.13C130.353 254.29 129.873 253.15 129.873 251.71C129.873 250.18 130.443 248.98 131.553 248.14C132.663 247.3 134.253 246.88 136.323 246.88H140.163V246.13C140.163 244.78 139.833 243.79 139.143 243.22C138.453 242.65 137.523 242.35 136.353 242.35C135.363 242.35 134.523 242.53 133.893 242.92C133.233 243.31 132.813 243.82 132.663 244.39H130.383C130.653 243.16 131.313 242.17 132.393 241.42C133.473 240.67 134.793 240.31 136.353 240.31C138.213 240.31 139.683 240.79 140.763 241.75C141.843 242.71 142.383 244.21 142.383 246.28V256H140.253V253.6C139.713 254.53 138.963 255.25 138.033 255.7C137.073 256.15 136.083 256.39 135.063 256.39ZM135.483 254.41C136.203 254.41 136.923 254.26 137.643 253.93C138.363 253.6 138.963 253.12 139.443 252.46C139.923 251.83 140.163 251.02 140.163 250.03V248.77H136.443C135.063 248.77 133.983 249.01 133.233 249.49C132.483 249.97 132.093 250.69 132.093 251.62C132.093 252.52 132.423 253.21 133.053 253.69C133.683 254.17 134.493 254.41 135.483 254.41ZM152.229 256.45C150.459 256.45 149.019 256.03 147.909 255.19C146.769 254.38 146.079 253.33 145.809 252.07H148.089C148.239 252.7 148.689 253.27 149.439 253.72C150.189 254.2 151.089 254.44 152.199 254.44C153.279 254.44 154.149 254.2 154.809 253.75C155.469 253.3 155.799 252.64 155.799 251.83C155.799 251.2 155.589 250.66 155.139 250.27C154.689 249.88 153.909 249.61 152.829 249.46L150.459 249.16C147.549 248.8 146.109 247.42 146.109 244.99C146.109 244.09 146.349 243.28 146.859 242.59C147.369 241.9 148.059 241.33 148.929 240.91C149.799 240.52 150.789 240.31 151.899 240.31C153.459 240.31 154.749 240.67 155.799 241.42C156.819 242.17 157.479 243.16 157.809 244.39H155.529C155.319 243.73 154.899 243.22 154.269 242.86C153.639 242.5 152.889 242.32 151.959 242.32C150.849 242.32 149.979 242.56 149.349 243.04C148.719 243.55 148.389 244.18 148.389 244.93C148.389 245.56 148.629 246.04 149.079 246.37C149.529 246.7 150.249 246.94 151.299 247.09L153.669 247.39C155.109 247.57 156.219 248.05 156.969 248.83C157.719 249.61 158.079 250.6 158.079 251.77C158.079 252.7 157.839 253.54 157.329 254.23C156.819 254.95 156.099 255.49 155.229 255.88C154.359 256.27 153.339 256.45 152.229 256.45ZM166.997 256.12C165.557 256.12 164.477 255.73 163.727 254.92C162.977 254.14 162.617 253 162.617 251.47V242.71H159.797V240.7H162.617V235.72C163.007 235.69 163.367 235.66 163.757 235.57C164.117 235.48 164.477 235.39 164.837 235.27V240.7H168.287V242.71H164.837V251.29C164.837 253.18 165.677 254.11 167.327 254.11H168.287V256.12H166.997ZM177.947 256.39C176.447 256.39 175.157 256.06 174.077 255.4C172.967 254.74 172.127 253.81 171.557 252.61C170.957 251.41 170.657 250 170.657 248.35C170.657 246.82 170.957 245.44 171.527 244.21C172.097 242.98 172.907 242.02 173.987 241.33C175.037 240.64 176.327 240.31 177.827 240.31C179.237 240.31 180.467 240.64 181.457 241.27C182.447 241.9 183.197 242.8 183.707 243.91C184.217 245.05 184.457 246.37 184.457 247.87V249.07H172.937C173.057 250.78 173.567 252.07 174.437 252.97C175.307 253.9 176.477 254.35 177.947 254.35C178.937 254.35 179.747 254.17 180.437 253.81C181.127 253.48 181.577 253 181.787 252.43H184.127C183.767 253.66 183.017 254.62 181.907 255.31C180.797 256.03 179.477 256.39 177.947 256.39ZM177.827 242.35C176.447 242.35 175.337 242.77 174.497 243.64C173.657 244.51 173.147 245.68 172.967 247.15H182.207C182.177 245.74 181.787 244.57 181.037 243.67C180.287 242.8 179.237 242.35 177.827 242.35ZM190.479 248.2V256H188.259V240.7H190.419V243.52C190.899 242.59 191.529 241.9 192.339 241.39C193.149 240.88 194.019 240.64 194.979 240.64H195.399V242.77H194.919C194.139 242.77 193.419 242.98 192.729 243.37C192.039 243.79 191.499 244.39 191.109 245.2C190.689 246.01 190.479 247 190.479 248.2ZM210.972 256.12C209.532 256.12 208.452 255.73 207.702 254.92C206.952 254.14 206.592 253 206.592 251.47V242.71H203.772V240.7H206.592V235.72C206.982 235.69 207.342 235.66 207.732 235.57C208.092 235.48 208.452 235.39 208.812 235.27V240.7H212.262V242.71H208.812V251.29C208.812 253.18 209.652 254.11 211.302 254.11H212.262V256.12H210.972ZM215.622 256V234.25H217.842V242.83C218.382 242.02 219.072 241.42 219.942 240.97C220.782 240.52 221.682 240.31 222.672 240.31C223.842 240.31 224.832 240.58 225.642 241.12C226.452 241.66 227.052 242.38 227.502 243.31C227.922 244.24 228.132 245.32 228.132 246.55V256H225.912V247C225.912 245.56 225.612 244.42 224.982 243.61C224.352 242.8 223.392 242.38 222.162 242.38C221.412 242.38 220.722 242.56 220.062 242.89C219.402 243.25 218.862 243.76 218.472 244.42C218.052 245.11 217.842 245.92 217.842 246.91V256H215.622ZM236.781 256.39C235.251 256.39 233.991 255.97 233.031 255.13C232.071 254.29 231.591 253.15 231.591 251.71C231.591 250.18 232.161 248.98 233.271 248.14C234.381 247.3 235.971 246.88 238.041 246.88H241.881V246.13C241.881 244.78 241.551 243.79 240.861 243.22C240.171 242.65 239.241 242.35 238.071 242.35C237.081 242.35 236.241 242.53 235.611 242.92C234.951 243.31 234.531 243.82 234.381 244.39H232.101C232.371 243.16 233.031 242.17 234.111 241.42C235.191 240.67 236.511 240.31 238.071 240.31C239.931 240.31 241.401 240.79 242.481 241.75C243.561 242.71 244.101 244.21 244.101 246.28V256H241.971V253.6C241.431 254.53 240.681 255.25 239.751 255.7C238.791 256.15 237.801 256.39 236.781 256.39ZM237.201 254.41C237.921 254.41 238.641 254.26 239.361 253.93C240.081 253.6 240.681 253.12 241.161 252.46C241.641 251.83 241.881 251.02 241.881 250.03V248.77H238.161C236.781 248.77 235.701 249.01 234.951 249.49C234.201 249.97 233.811 250.69 233.811 251.62C233.811 252.52 234.141 253.21 234.771 253.69C235.401 254.17 236.211 254.41 237.201 254.41ZM250.918 246.91V256H248.698V240.7H250.858V242.92C251.398 242.08 252.088 241.42 252.958 240.97C253.828 240.52 254.758 240.31 255.748 240.31C256.918 240.31 257.908 240.58 258.718 241.12C259.528 241.66 260.128 242.38 260.578 243.31C260.998 244.24 261.208 245.32 261.208 246.55V256H258.988V247C258.988 245.56 258.688 244.42 258.058 243.61C257.428 242.8 256.468 242.38 255.238 242.38C254.488 242.38 253.798 242.56 253.138 242.89C252.478 243.25 251.938 243.76 251.548 244.42C251.128 245.11 250.918 245.92 250.918 246.91ZM278.118 256.45C276.348 256.45 274.908 256.03 273.798 255.19C272.658 254.38 271.968 253.33 271.698 252.07H273.978C274.128 252.7 274.578 253.27 275.328 253.72C276.078 254.2 276.978 254.44 278.088 254.44C279.168 254.44 280.038 254.2 280.698 253.75C281.358 253.3 281.688 252.64 281.688 251.83C281.688 251.2 281.478 250.66 281.028 250.27C280.578 249.88 279.798 249.61 278.718 249.46L276.348 249.16C273.438 248.8 271.998 247.42 271.998 244.99C271.998 244.09 272.238 243.28 272.748 242.59C273.258 241.9 273.948 241.33 274.818 240.91C275.688 240.52 276.678 240.31 277.788 240.31C279.348 240.31 280.638 240.67 281.688 241.42C282.708 242.17 283.368 243.16 283.698 244.39H281.418C281.208 243.73 280.788 243.22 280.158 242.86C279.528 242.5 278.778 242.32 277.848 242.32C276.738 242.32 275.868 242.56 275.238 243.04C274.608 243.55 274.278 244.18 274.278 244.93C274.278 245.56 274.518 246.04 274.968 246.37C275.418 246.7 276.138 246.94 277.188 247.09L279.558 247.39C280.998 247.57 282.108 248.05 282.858 248.83C283.608 249.61 283.968 250.6 283.968 251.77C283.968 252.7 283.728 253.54 283.218 254.23C282.708 254.95 281.988 255.49 281.118 255.88C280.248 256.27 279.228 256.45 278.118 256.45ZM293.786 256.39C292.376 256.39 291.116 256.06 290.036 255.37C288.926 254.68 288.086 253.75 287.486 252.52C286.856 251.32 286.556 249.94 286.556 248.35C286.556 246.76 286.856 245.38 287.486 244.15C288.086 242.95 288.926 242.02 290.036 241.33C291.116 240.64 292.376 240.31 293.786 240.31C295.196 240.31 296.456 240.64 297.566 241.33C298.646 242.02 299.486 242.95 300.116 244.15C300.716 245.38 301.016 246.76 301.016 248.35C301.016 249.94 300.716 251.32 300.116 252.52C299.486 253.75 298.646 254.68 297.566 255.37C296.456 256.06 295.196 256.39 293.786 256.39ZM293.786 254.32C295.256 254.32 296.456 253.78 297.386 252.67C298.316 251.59 298.766 250.15 298.766 248.35C298.766 246.55 298.316 245.11 297.386 244C296.456 242.92 295.256 242.38 293.786 242.38C292.316 242.38 291.146 242.92 290.216 244C289.286 245.11 288.806 246.55 288.806 248.35C288.806 250.15 289.286 251.59 290.216 252.67C291.146 253.78 292.316 254.32 293.786 254.32ZM304.772 256V240.7H306.932V242.74C307.442 241.96 308.072 241.36 308.852 240.94C309.602 240.52 310.442 240.31 311.372 240.31C312.422 240.31 313.322 240.55 314.102 241.06C314.882 241.57 315.482 242.29 315.872 243.22C316.382 242.29 317.102 241.57 318.002 241.06C318.872 240.55 319.832 240.31 320.852 240.31C322.412 240.31 323.672 240.85 324.602 241.93C325.532 243.04 326.012 244.54 326.012 246.43V256H323.792V246.7C323.792 245.35 323.492 244.27 322.892 243.52C322.262 242.77 321.452 242.38 320.402 242.38C319.352 242.38 318.452 242.77 317.672 243.52C316.892 244.27 316.502 245.35 316.502 246.7V256H314.282V246.7C314.282 245.35 313.982 244.27 313.352 243.52C312.722 242.77 311.912 242.38 310.892 242.38C309.842 242.38 308.912 242.77 308.162 243.52C307.382 244.27 306.992 245.35 306.992 246.7V256H304.772ZM336.912 256.39C335.412 256.39 334.122 256.06 333.042 255.4C331.932 254.74 331.092 253.81 330.522 252.61C329.922 251.41 329.622 250 329.622 248.35C329.622 246.82 329.922 245.44 330.492 244.21C331.062 242.98 331.872 242.02 332.952 241.33C334.002 240.64 335.292 240.31 336.792 240.31C338.202 240.31 339.432 240.64 340.422 241.27C341.412 241.9 342.162 242.8 342.672 243.91C343.182 245.05 343.422 246.37 343.422 247.87V249.07H331.902C332.022 250.78 332.532 252.07 333.402 252.97C334.272 253.9 335.442 254.35 336.912 254.35C337.902 254.35 338.712 254.17 339.402 253.81C340.092 253.48 340.542 253 340.752 252.43H343.092C342.732 253.66 341.982 254.62 340.872 255.31C339.762 256.03 338.442 256.39 336.912 256.39ZM336.792 242.35C335.412 242.35 334.302 242.77 333.462 243.64C332.622 244.51 332.112 245.68 331.932 247.15H341.172C341.142 245.74 340.752 244.57 340.002 243.67C339.252 242.8 338.202 242.35 336.792 242.35ZM353.464 256.39C352.054 256.39 350.794 256.06 349.714 255.37C348.604 254.68 347.764 253.75 347.164 252.52C346.534 251.32 346.234 249.94 346.234 248.35C346.234 246.76 346.534 245.38 347.164 244.15C347.764 242.95 348.604 242.02 349.714 241.33C350.794 240.64 352.054 240.31 353.464 240.31C354.874 240.31 356.134 240.64 357.244 241.33C358.324 242.02 359.164 242.95 359.794 244.15C360.394 245.38 360.694 246.76 360.694 248.35C360.694 249.94 360.394 251.32 359.794 252.52C359.164 253.75 358.324 254.68 357.244 255.37C356.134 256.06 354.874 256.39 353.464 256.39ZM353.464 254.32C354.934 254.32 356.134 253.78 357.064 252.67C357.994 251.59 358.444 250.15 358.444 248.35C358.444 246.55 357.994 245.11 357.064 244C356.134 242.92 354.934 242.38 353.464 242.38C351.994 242.38 350.824 242.92 349.894 244C348.964 245.11 348.484 246.55 348.484 248.35C348.484 250.15 348.964 251.59 349.894 252.67C350.824 253.78 351.994 254.32 353.464 254.32ZM366.67 246.91V256H364.45V240.7H366.61V242.92C367.15 242.08 367.84 241.42 368.71 240.97C369.58 240.52 370.51 240.31 371.5 240.31C372.67 240.31 373.66 240.58 374.47 241.12C375.28 241.66 375.88 242.38 376.33 243.31C376.75 244.24 376.96 245.32 376.96 246.55V256H374.74V247C374.74 245.56 374.44 244.42 373.81 243.61C373.18 242.8 372.22 242.38 370.99 242.38C370.24 242.38 369.55 242.56 368.89 242.89C368.23 243.25 367.69 243.76 367.3 244.42C366.88 245.11 366.67 245.92 366.67 246.91ZM387.859 256.39C386.359 256.39 385.069 256.06 383.989 255.4C382.879 254.74 382.039 253.81 381.469 252.61C380.869 251.41 380.569 250 380.569 248.35C380.569 246.82 380.869 245.44 381.439 244.21C382.009 242.98 382.819 242.02 383.899 241.33C384.949 240.64 386.239 240.31 387.739 240.31C389.149 240.31 390.379 240.64 391.369 241.27C392.359 241.9 393.109 242.8 393.619 243.91C394.129 245.05 394.369 246.37 394.369 247.87V249.07H382.849C382.969 250.78 383.479 252.07 384.349 252.97C385.219 253.9 386.389 254.35 387.859 254.35C388.849 254.35 389.659 254.17 390.349 253.81C391.039 253.48 391.489 253 391.699 252.43H394.039C393.679 253.66 392.929 254.62 391.819 255.31C390.709 256.03 389.389 256.39 387.859 256.39ZM387.739 242.35C386.359 242.35 385.249 242.77 384.409 243.64C383.569 244.51 383.059 245.68 382.879 247.15H392.119C392.089 245.74 391.699 244.57 390.949 243.67C390.199 242.8 389.149 242.35 387.739 242.35ZM411.531 256.39C410.031 256.39 408.741 256.06 407.661 255.4C406.551 254.74 405.711 253.81 405.141 252.61C404.541 251.41 404.241 250 404.241 248.35C404.241 246.82 404.541 245.44 405.111 244.21C405.681 242.98 406.491 242.02 407.571 241.33C408.621 240.64 409.911 240.31 411.411 240.31C412.821 240.31 414.051 240.64 415.041 241.27C416.031 241.9 416.781 242.8 417.291 243.91C417.801 245.05 418.041 246.37 418.041 247.87V249.07H406.521C406.641 250.78 407.151 252.07 408.021 252.97C408.891 253.9 410.061 254.35 411.531 254.35C412.521 254.35 413.331 254.17 414.021 253.81C414.711 253.48 415.161 253 415.371 252.43H417.711C417.351 253.66 416.601 254.62 415.491 255.31C414.381 256.03 413.061 256.39 411.531 256.39ZM411.411 242.35C410.031 242.35 408.921 242.77 408.081 243.64C407.241 244.51 406.731 245.68 406.551 247.15H415.791C415.761 245.74 415.371 244.57 414.621 243.67C413.871 242.8 412.821 242.35 411.411 242.35ZM421.843 256V234.25H424.063V256H421.843ZM434.065 256.45C432.295 256.45 430.855 256.03 429.745 255.19C428.605 254.38 427.915 253.33 427.645 252.07H429.925C430.075 252.7 430.525 253.27 431.275 253.72C432.025 254.2 432.925 254.44 434.035 254.44C435.115 254.44 435.985 254.2 436.645 253.75C437.305 253.3 437.635 252.64 437.635 251.83C437.635 251.2 437.425 250.66 436.975 250.27C436.525 249.88 435.745 249.61 434.665 249.46L432.295 249.16C429.385 248.8 427.945 247.42 427.945 244.99C427.945 244.09 428.185 243.28 428.695 242.59C429.205 241.9 429.895 241.33 430.765 240.91C431.635 240.52 432.625 240.31 433.735 240.31C435.295 240.31 436.585 240.67 437.635 241.42C438.655 242.17 439.315 243.16 439.645 244.39H437.365C437.155 243.73 436.735 243.22 436.105 242.86C435.475 242.5 434.725 242.32 433.795 242.32C432.685 242.32 431.815 242.56 431.185 243.04C430.555 243.55 430.225 244.18 430.225 244.93C430.225 245.56 430.465 246.04 430.915 246.37C431.365 246.7 432.085 246.94 433.135 247.09L435.505 247.39C436.945 247.57 438.055 248.05 438.805 248.83C439.555 249.61 439.915 250.6 439.915 251.77C439.915 252.7 439.675 253.54 439.165 254.23C438.655 254.95 437.935 255.49 437.065 255.88C436.195 256.27 435.175 256.45 434.065 256.45ZM449.793 256.39C448.293 256.39 447.003 256.06 445.923 255.4C444.813 254.74 443.973 253.81 443.403 252.61C442.803 251.41 442.503 250 442.503 248.35C442.503 246.82 442.803 245.44 443.373 244.21C443.943 242.98 444.753 242.02 445.833 241.33C446.883 240.64 448.173 240.31 449.673 240.31C451.083 240.31 452.313 240.64 453.303 241.27C454.293 241.9 455.043 242.8 455.553 243.91C456.063 245.05 456.303 246.37 456.303 247.87V249.07H444.783C444.903 250.78 445.413 252.07 446.283 252.97C447.153 253.9 448.323 254.35 449.793 254.35C450.783 254.35 451.593 254.17 452.283 253.81C452.973 253.48 453.423 253 453.633 252.43H455.973C455.613 253.66 454.863 254.62 453.753 255.31C452.643 256.03 451.323 256.39 449.793 256.39ZM449.673 242.35C448.293 242.35 447.183 242.77 446.343 243.64C445.503 244.51 444.993 245.68 444.813 247.15H454.053C454.023 245.74 453.633 244.57 452.883 243.67C452.133 242.8 451.083 242.35 449.673 242.35ZM461.754 256.33C461.244 256.33 460.824 256.15 460.494 255.82C460.164 255.49 459.984 255.07 459.984 254.56C459.984 254.05 460.164 253.63 460.494 253.3C460.824 252.97 461.244 252.79 461.754 252.79C462.264 252.79 462.684 252.97 463.014 253.3C463.344 253.63 463.524 254.05 463.524 254.56C463.524 255.07 463.344 255.49 463.014 255.82C462.684 256.15 462.264 256.33 461.754 256.33Z" fill="white" fill-opacity="0.8"/>
</svg>
