<svg width="194" height="284" viewBox="0 0 194 284" fill="none" xmlns="http://www.w3.org/2000/svg">
<path fill-rule="evenodd" clip-rule="evenodd" d="M104.641 199.746L98.6421 226.844C94.6566 245.664 87.6819 259.724 77.718 269.024C67.7542 278.545 54.9119 283.305 39.1912 283.305C28.3416 283.305 19.1527 279.873 11.6245 273.009C3.87483 266.146 0 257.621 0 247.436C0 235.922 3.87483 226.512 11.6245 219.205C19.1527 211.898 34.3199 204.702 57.1261 197.616L74.9009 116.577H72.1095C66.5741 116.577 62.2564 115.249 59.1565 112.592C56.2781 109.713 54.8389 105.838 54.8389 100.967C54.8389 93.6602 57.1638 86.9069 61.8135 80.7072C66.4633 74.5075 71.9988 71.4076 78.42 71.4076H83.0698L87.0553 53.1405C90.598 36.5341 97.6834 23.6918 108.312 14.6136C118.94 5.31404 132.003 0.442832 147.503 0C161.231 0 172.412 2.21419 181.048 6.64256C189.683 11.0709 194.001 17.3814 194.001 25.5739C194.001 31.995 191.565 37.8626 186.694 43.1767C181.823 48.4907 176.398 51.1478 170.42 51.1478C167.541 51.1478 163.888 50.2621 159.459 48.4907C154.588 46.2765 150.049 45.1694 145.842 45.1694C140.971 45.1694 137.317 46.498 134.882 49.155C132.668 51.812 131.339 55.7976 130.896 61.1116C130.675 62.883 130.343 64.5436 129.9 66.0935L129.236 70.0791L145.842 70.4112C151.82 70.6326 156.359 72.2933 159.459 75.3931C162.781 78.493 164.441 82.5892 164.441 87.6819C164.441 95.4315 161.563 102.185 155.806 107.942C150.049 113.699 142.964 116.577 134.55 116.577H123.052L117.576 141.314C116.683 145.839 115.92 149.55 115.286 152.447C111.795 168.953 108.246 184.719 104.641 199.746ZM26.9024 223.19C32.6593 217.655 41.9589 212.784 54.8012 208.577L50.4835 227.84C48.7122 236.254 46.1658 242.675 42.8446 247.103C39.5233 251.532 35.7592 253.746 31.5522 253.746C28.2309 253.746 25.2418 252.528 22.5847 250.093C19.7063 247.878 18.2671 245.443 18.2671 242.786C18.2671 235.258 21.1455 228.726 26.9024 223.19Z" fill="white"/>
<path d="M182.67 251.156C182.67 264.913 171.517 276.065 157.76 276.065C144.003 276.065 132.851 264.913 132.851 251.156C132.851 237.398 144.003 226.246 157.76 226.246C171.517 226.246 182.67 237.398 182.67 251.156Z" fill="white"/>
</svg>
