<?xml version="1.0" standalone="no"?>
<!DOCTYPE svg PUBLIC "-//W3C//DTD SVG 20010904//EN"
 "http://www.w3.org/TR/2001/REC-SVG-20010904/DTD/svg10.dtd">
<svg version="1.0" xmlns="http://www.w3.org/2000/svg"
 width="1096.000000pt" height="1096.000000pt" viewBox="0 0 1096.000000 1096.000000"
 preserveAspectRatio="xMidYMid meet">
<metadata>
Created by potrace 1.14, written by Peter Selinger 2001-2017
</metadata>
<g transform="translate(0.000000,1096.000000) scale(0.100000,-0.100000)"
fill="#000000" stroke="none">
<path d="M2263 9053 c-7 -16 -14 -37 -16 -48 -2 -11 -20 -72 -41 -135 -21 -63
-39 -122 -41 -130 -2 -8 -11 -35 -20 -60 -9 -25 -18 -52 -20 -60 -2 -8 -21
-71 -43 -140 -23 -69 -68 -213 -102 -320 -34 -107 -64 -202 -67 -210 -3 -8 -7
-20 -9 -27 -2 -14 -43 -140 -51 -163 -3 -8 -7 -19 -8 -25 -5 -19 -106 -340
-117 -367 -5 -15 -10 -30 -9 -33 0 -3 -5 -22 -13 -42 -18 -49 -109 -337 -107
-340 0 -2 -6 -20 -13 -40 -21 -53 -106 -322 -106 -333 0 -5 -5 -21 -12 -37 -6
-15 -12 -30 -13 -33 0 -3 -11 -39 -25 -80 -13 -41 -25 -84 -27 -94 -2 -11 -8
-25 -14 -33 -6 -7 -9 -13 -6 -13 4 0 -1 -19 -9 -42 -9 -24 -17 -50 -19 -58 -2
-8 -13 -44 -25 -80 -35 -106 -92 -284 -94 -295 -1 -5 -25 -82 -53 -170 -29
-88 -77 -241 -108 -340 -31 -99 -59 -187 -62 -195 -3 -8 -7 -19 -9 -25 -3 -13
-51 -165 -109 -345 -26 -80 -57 -179 -70 -220 -55 -177 -96 -303 -102 -312 -3
-6 -6 -18 -7 -27 -1 -15 -20 -76 -33 -111 -4 -8 -7 -17 -7 -20 -1 -3 -17 -52
-36 -110 -19 -58 -35 -112 -37 -120 -1 -8 -18 -62 -38 -120 -20 -58 -38 -116
-41 -129 -3 -14 -7 -28 -10 -33 -3 -4 -7 -16 -9 -25 -2 -10 -20 -67 -40 -128
-20 -60 -38 -117 -40 -125 -2 -8 -4 -16 -5 -17 -2 -2 -3 -6 -4 -10 -2 -9 -73
-235 -86 -273 -5 -14 -36 -113 -70 -220 -34 -107 -64 -202 -67 -210 -3 -8 -7
-22 -9 -30 -2 -8 -13 -42 -24 -75 -11 -33 -22 -64 -23 -70 -3 -12 -11 -35 -63
-200 -21 -66 -39 -123 -40 -127 -1 -5 -2 -9 -4 -10 -1 -2 -3 -10 -5 -18 -2 -8
-8 -29 -13 -47 -10 -30 -9 -31 23 -35 19 -2 43 0 55 4 12 4 19 4 16 0 -2 -4 9
-7 25 -7 16 0 29 4 29 8 0 4 8 4 18 -1 9 -5 26 -6 37 -2 11 4 32 4 47 -1 14
-4 28 -5 30 -3 5 5 49 5 126 2 34 -2 62 1 62 5 0 4 8 4 17 -1 10 -5 27 -6 38
-2 11 4 32 4 47 -1 14 -4 28 -5 30 -3 5 5 49 5 126 2 34 -2 62 1 62 5 0 4 8 4
17 -1 10 -5 27 -6 38 -2 11 4 30 4 42 1 13 -3 43 -5 67 -3 l45 4 36 116 c21
65 47 146 58 182 12 36 22 67 22 70 3 14 77 248 84 265 5 11 15 43 24 70 71
223 101 321 103 330 1 6 13 44 27 85 39 119 120 374 123 386 1 7 11 38 22 70
11 33 43 133 72 224 28 91 55 176 60 190 5 14 30 93 55 175 25 83 49 157 52
165 4 8 7 17 8 20 2 9 15 50 73 230 30 96 57 180 58 185 1 6 15 48 30 95 29
89 30 93 37 125 3 11 12 38 20 60 8 22 38 114 67 205 81 259 82 263 92 292 6
15 10 31 11 35 0 4 6 22 13 38 7 17 12 32 12 35 1 3 3 12 5 20 24 75 40 127
42 135 1 6 5 17 8 25 3 8 11 33 17 55 6 22 15 49 20 60 4 11 15 43 23 70 8 28
32 102 52 165 20 63 39 122 40 130 4 17 43 137 52 160 3 8 7 20 8 25 2 6 26
85 55 175 29 90 53 169 54 175 1 5 4 15 7 20 4 6 10 24 14 40 12 44 12 45 15
50 1 3 3 8 5 13 1 4 4 14 7 22 4 8 20 62 38 120 17 58 34 112 37 120 3 8 8 22
10 30 5 21 9 32 16 50 3 8 29 89 57 180 28 91 53 170 54 175 2 6 4 13 5 17 1
5 10 32 20 60 11 29 34 100 51 158 17 58 37 119 43 135 6 17 12 35 13 40 2 11
150 479 160 505 3 8 5 15 4 15 -1 0 5 18 13 40 8 22 22 63 30 90 40 132 110
354 123 388 8 20 14 40 14 42 0 3 -226 5 -503 5 l-502 0 -12 -27z"/>
<path d="M9933 9068 c-4 -7 -8 -18 -9 -25 -2 -13 -32 -108 -41 -133 -4 -8 -7
-17 -7 -20 -5 -17 -136 -430 -143 -450 -3 -8 -7 -20 -9 -27 -3 -14 -43 -141
-51 -163 -4 -8 -7 -17 -7 -20 -1 -3 -16 -50 -34 -105 -17 -55 -32 -103 -32
-107 0 -5 -9 -32 -19 -60 -10 -29 -37 -114 -61 -188 -23 -74 -53 -166 -65
-205 -13 -38 -42 -131 -65 -205 -23 -74 -45 -144 -49 -155 -8 -18 -54 -163
-56 -175 0 -3 -22 -70 -47 -150 -26 -80 -65 -206 -88 -280 -23 -74 -44 -142
-47 -150 -3 -8 -7 -19 -9 -25 -1 -5 -9 -29 -18 -52 -8 -24 -13 -43 -9 -43 3 0
1 -6 -4 -12 -9 -11 -15 -28 -29 -83 -1 -5 -9 -30 -18 -55 -9 -25 -46 -139 -82
-255 -36 -115 -93 -295 -127 -400 -33 -104 -60 -191 -59 -193 1 -1 -4 -18 -12
-37 -9 -20 -15 -38 -15 -40 0 -3 -13 -47 -30 -98 -59 -183 -131 -412 -131
-420 0 -4 -7 -21 -15 -37 -9 -17 -13 -30 -10 -30 3 0 -2 -17 -9 -37 -8 -21
-26 -76 -41 -123 -14 -47 -29 -92 -32 -100 -6 -15 -11 -31 -16 -52 -4 -17 -87
-279 -94 -298 -6 -15 -10 -28 -16 -52 -4 -18 -116 -367 -127 -398 -8 -22 -92
-288 -95 -300 -11 -44 -20 -67 -28 -78 -5 -6 -7 -12 -4 -12 3 0 -1 -17 -10
-37 -8 -21 -15 -40 -15 -43 -1 -8 -3 -15 -47 -157 -23 -73 -42 -135 -41 -138
0 -3 -6 -19 -15 -35 -8 -16 -14 -33 -13 -37 1 -4 -22 -82 -52 -173 -30 -91
-54 -169 -55 -175 -1 -5 -7 -23 -13 -39 -7 -16 -14 -36 -15 -45 -4 -21 -105
-339 -117 -369 -17 -41 -12 -50 30 -54 22 -2 49 0 60 4 12 4 19 4 16 0 -2 -4
9 -7 25 -7 16 0 29 4 29 8 0 4 8 4 18 -1 9 -5 26 -6 37 -2 11 4 32 4 47 -1 14
-4 28 -5 30 -3 5 5 49 5 126 2 34 -2 62 1 62 5 0 4 8 4 18 -1 9 -5 26 -6 37
-2 11 4 32 4 47 -1 14 -4 28 -5 30 -3 5 5 49 5 126 2 34 -2 62 1 62 5 0 4 8 4
18 -1 9 -5 26 -6 37 -2 11 4 31 4 44 1 13 -4 38 -5 56 -3 40 5 43 10 120 262
31 102 60 194 65 205 4 11 25 74 45 140 50 161 111 352 143 450 14 44 27 85
28 90 1 6 20 66 42 135 48 149 154 483 189 595 13 44 30 96 38 115 7 19 14 40
15 45 1 6 4 15 6 20 1 6 19 61 38 124 20 62 36 119 36 127 0 8 5 14 12 14 6 0
9 3 5 6 -3 3 1 23 8 45 8 22 14 40 13 42 -2 3 32 108 42 132 10 22 20 57 19
65 0 3 5 19 11 35 7 17 13 37 15 45 2 8 15 49 30 90 14 41 25 76 24 78 0 2 4
15 9 30 10 26 52 157 57 177 1 6 5 17 8 25 3 8 27 83 52 165 83 268 97 310
105 330 5 11 25 74 45 140 20 66 39 127 42 135 8 18 6 15 22 70 7 25 26 83 41
130 16 47 42 132 60 190 17 58 35 114 40 125 5 11 25 74 45 140 20 66 39 127
43 135 3 8 6 18 7 23 2 4 3 8 5 10 1 1 3 9 5 17 1 8 26 87 54 175 29 88 54
167 56 175 2 8 24 79 50 158 25 79 48 152 50 162 2 10 9 29 16 42 7 13 11 23
9 23 -2 0 4 23 13 50 9 28 48 151 87 275 39 124 85 268 102 320 17 52 31 100
32 105 1 6 7 24 13 40 11 29 103 319 108 340 1 6 5 17 8 25 9 23 27 84 27 92
1 4 8 24 16 45 9 20 17 44 19 52 2 9 16 54 31 101 15 47 28 90 30 95 1 6 13
46 28 90 14 44 26 83 26 87 0 5 -225 8 -499 8 -389 0 -502 -3 -508 -12z"/>
<path d="M3430 7324 c0 -10 25 -80 51 -139 4 -11 32 -83 62 -160 30 -77 57
-149 62 -160 5 -11 9 -22 10 -25 1 -5 31 -83 122 -315 143 -367 150 -385 152
-398 0 -4 7 -20 15 -36 9 -16 12 -31 9 -35 -4 -3 -1 -6 5 -6 7 0 12 -5 12 -10
0 -6 34 -99 77 -208 42 -108 100 -260 130 -337 29 -77 58 -149 63 -160 5 -11
32 -81 60 -155 28 -74 55 -144 60 -155 5 -11 25 -62 44 -112 20 -51 52 -135
72 -185 19 -51 45 -118 56 -148 12 -30 24 -59 28 -65 3 -5 13 -30 20 -55 7
-25 17 -49 20 -55 4 -5 13 -28 20 -50 7 -22 16 -44 20 -50 3 -5 15 -32 25 -60
10 -27 42 -111 70 -185 29 -74 90 -229 135 -345 44 -115 90 -235 102 -265 11
-30 25 -64 29 -75 5 -11 22 -53 38 -94 19 -52 35 -77 49 -82 14 -5 22 -4 22 2
0 6 5 7 10 4 6 -4 233 -7 505 -7 384 0 499 3 510 12 9 7 13 15 10 18 -3 3 -1
10 3 16 5 6 17 34 27 61 10 28 21 55 25 60 4 6 11 25 15 43 3 17 10 32 14 32
4 0 8 6 8 13 0 7 25 76 56 155 32 78 57 144 57 147 0 4 8 25 19 48 17 40 74
186 76 197 1 3 9 23 19 45 10 22 19 45 20 50 3 10 8 22 39 98 9 20 14 37 11
37 -3 0 4 17 14 38 11 20 37 82 57 137 21 55 44 116 52 135 29 68 32 75 39
100 5 14 7 28 6 33 -1 4 3 7 8 7 6 0 10 5 10 10 0 9 156 414 221 575 7 17 13
35 15 40 3 13 102 265 114 290 5 11 20 49 34 85 13 36 50 130 81 210 31 80 68
174 82 210 13 36 28 74 33 85 5 11 41 103 81 205 69 178 183 471 216 555 8 22
24 60 34 85 64 155 114 296 107 300 -4 3 -249 6 -544 5 -466 0 -538 -2 -545
-15 -4 -8 -38 -105 -74 -215 -37 -110 -69 -207 -72 -215 -4 -8 -7 -17 -8 -20
-1 -3 -5 -13 -9 -22 -4 -9 -9 -22 -10 -30 -2 -7 -6 -20 -9 -28 -13 -34 -68
-196 -72 -210 -2 -8 -22 -69 -46 -135 -23 -66 -42 -126 -42 -132 0 -7 -3 -13
-7 -13 -4 0 -7 -6 -8 -12 -1 -21 -7 -42 -13 -53 -4 -5 -28 -75 -54 -155 -26
-80 -50 -149 -54 -155 -3 -5 -7 -17 -8 -26 -1 -9 -7 -27 -12 -40 -5 -13 -10
-28 -12 -34 -1 -5 -13 -39 -27 -75 -13 -36 -25 -72 -27 -80 -2 -8 -27 -80 -55
-160 -28 -80 -51 -147 -52 -150 -1 -8 -5 -20 -46 -140 -22 -63 -50 -144 -62
-180 -12 -36 -67 -195 -121 -355 -55 -159 -102 -297 -105 -305 -4 -9 -13 6
-26 40 -11 30 -22 62 -25 70 -3 8 -7 20 -9 25 -3 14 -39 120 -144 425 -50 146
-118 346 -151 445 -33 99 -64 189 -69 200 -5 11 -32 90 -60 175 -28 85 -54
162 -57 170 -28 74 -74 210 -79 230 -3 13 -11 38 -18 55 -13 30 -64 177 -71
205 -2 8 -4 16 -5 18 -2 1 -3 5 -5 10 -1 4 -4 14 -8 22 -3 8 -22 65 -42 125
-21 61 -82 241 -137 400 -55 160 -103 301 -107 315 l-7 25 -577 0 c-422 0
-577 -3 -577 -11z"/>
</g>
</svg>
