<?xml version="1.0" standalone="no"?>
<!DOCTYPE svg PUBLIC "-//W3C//DTD SVG 20010904//EN"
 "http://www.w3.org/TR/2001/REC-SVG-20010904/DTD/svg10.dtd">
<svg version="1.0" xmlns="http://www.w3.org/2000/svg"
 width="1136.000000pt" height="1136.000000pt" viewBox="0 0 1136.000000 1136.000000"
 preserveAspectRatio="xMidYMid meet">
<metadata>
Created by potrace 1.14, written by Peter Selinger 2001-2017
</metadata>
<g transform="translate(0.000000,1136.000000) scale(0.100000,-0.100000)"
fill="#000000" stroke="none">
<path d="M7558 11355 c-1 -2 -39 -6 -82 -10 -44 -3 -82 -7 -85 -9 -3 -2 -28
-6 -56 -10 -69 -8 -101 -14 -170 -32 -33 -9 -69 -17 -80 -19 -30 -4 -79 -17
-90 -24 -5 -3 -14 -6 -20 -7 -12 -2 -133 -42 -155 -51 -8 -3 -17 -7 -20 -7 -3
-1 -14 -7 -25 -13 -11 -6 -23 -11 -28 -12 -27 -2 -339 -169 -357 -191 -3 -3
-23 -17 -45 -30 -22 -13 -42 -26 -45 -29 -3 -4 -34 -28 -70 -56 -115 -87 -325
-292 -383 -372 -17 -24 -34 -43 -39 -43 -4 0 -8 -5 -8 -11 0 -6 -7 -17 -15
-26 -17 -17 -111 -158 -141 -213 -10 -19 -22 -37 -25 -40 -4 -3 -32 -57 -64
-120 -64 -131 -134 -303 -177 -435 -27 -86 -103 -376 -114 -440 -3 -16 -9 -46
-14 -65 -5 -19 -12 -53 -16 -75 -3 -22 -10 -47 -15 -56 -4 -9 -6 -18 -4 -21 3
-2 0 -20 -5 -39 -6 -19 -13 -47 -16 -64 -3 -16 -10 -50 -15 -75 -13 -55 -18
-77 -25 -115 -9 -44 -12 -60 -14 -60 -1 0 -3 -9 -4 -20 -8 -61 -8 -61 -124
-61 -133 0 -211 -8 -282 -30 -115 -34 -251 -117 -337 -206 -63 -64 -123 -132
-123 -140 0 -4 -6 -13 -13 -20 -64 -68 -199 -340 -214 -434 -3 -19 -9 -34 -12
-34 -4 0 -7 -8 -8 -17 -1 -10 -4 -36 -7 -58 -16 -105 -19 -137 -18 -235 0 -58
4 -125 7 -150 18 -122 85 -251 168 -325 49 -45 183 -119 197 -110 5 3 11 1 14
-4 3 -5 23 -12 43 -16 21 -5 45 -10 53 -11 37 -8 162 -17 233 -17 l78 1 -5
-37 c-7 -50 -26 -143 -33 -161 -3 -8 -7 -22 -8 -30 -3 -18 -13 -65 -20 -100
-3 -14 -8 -34 -10 -45 -3 -11 -7 -31 -10 -45 -11 -47 -15 -65 -19 -88 -3 -13
-7 -31 -10 -40 -5 -16 -9 -37 -22 -102 -2 -14 -9 -45 -15 -70 -30 -134 -71
-318 -74 -335 -2 -11 -6 -31 -10 -45 -3 -14 -8 -36 -11 -50 -3 -14 -7 -32 -9
-40 -2 -8 -7 -31 -10 -50 -3 -19 -11 -53 -17 -75 -5 -22 -12 -51 -14 -65 -3
-14 -12 -54 -20 -90 -9 -36 -18 -74 -19 -85 -2 -11 -6 -31 -9 -45 -38 -166
-55 -248 -61 -280 -3 -19 -11 -53 -17 -75 -11 -44 -19 -80 -23 -110 -2 -11 -4
-21 -5 -22 -3 -3 -3 -3 -15 -58 -4 -22 -10 -49 -11 -60 -2 -11 -15 -72 -29
-135 -15 -63 -28 -123 -30 -133 -2 -10 -7 -27 -10 -37 -3 -10 -8 -31 -10 -46
-3 -16 -9 -47 -14 -69 -5 -22 -18 -84 -30 -137 -12 -53 -24 -109 -26 -125 -3
-15 -16 -75 -30 -133 -13 -58 -27 -118 -30 -135 -14 -85 -17 -88 -91 -112 -38
-12 -69 -23 -69 -23 0 -1 -7 -3 -15 -5 -80 -17 -639 -223 -779 -287 -25 -12
-52 -21 -58 -21 -7 0 -13 -4 -13 -9 0 -4 -5 -8 -11 -8 -33 0 -508 -250 -517
-272 -2 -4 -10 -8 -18 -8 -8 0 -14 -4 -14 -10 0 -5 -5 -10 -11 -10 -26 0 -210
-150 -299 -245 -124 -131 -181 -213 -255 -362 -29 -61 -87 -202 -85 -210 0 -2
-1 -5 -1 -8 -1 -3 -3 -9 -4 -15 -1 -5 -3 -11 -5 -12 -1 -2 -3 -11 -5 -22 -2
-10 -9 -41 -16 -70 -7 -28 -13 -62 -15 -76 -1 -14 -3 -25 -4 -25 -7 0 -14
-124 -14 -255 0 -139 7 -247 19 -290 2 -8 7 -29 10 -46 14 -84 123 -353 147
-362 4 -2 8 -8 8 -13 0 -9 62 -102 84 -126 6 -6 21 -24 33 -40 108 -139 340
-323 521 -412 115 -55 307 -120 377 -127 17 -1 30 -3 30 -4 0 -3 95 -19 155
-25 42 -5 316 -5 380 -1 62 5 180 17 205 22 35 7 79 15 105 19 51 8 228 52
255 64 11 5 49 19 85 31 193 66 432 206 615 361 83 70 294 294 304 322 2 7 11
18 20 27 18 19 171 252 196 300 100 195 186 388 212 475 8 28 20 56 25 63 6 6
8 12 4 12 -3 0 0 17 8 38 8 20 17 46 22 57 4 11 8 26 10 34 1 8 9 35 18 60 8
25 17 57 20 71 3 14 12 50 20 80 8 30 17 66 20 80 3 14 12 52 20 85 8 33 17
71 20 85 2 14 12 57 21 95 9 39 17 79 19 90 1 11 5 29 9 40 3 11 8 31 11 45 2
14 16 77 30 140 14 63 27 126 30 140 2 14 7 32 10 40 3 8 8 27 11 43 3 15 7
39 10 55 3 15 8 34 11 42 3 8 8 31 10 50 3 19 8 44 11 55 7 21 8 25 16 65 3
14 8 36 11 50 4 14 9 39 11 55 2 17 4 30 5 30 1 0 3 7 5 16 1 8 12 51 23 95
12 43 23 91 26 107 2 15 7 35 10 45 3 9 8 28 10 42 3 14 15 63 26 110 27 112
35 149 44 195 2 11 9 38 14 60 10 38 15 58 27 123 3 15 8 34 11 42 3 8 21 87
40 175 19 88 37 169 40 180 3 11 7 31 10 45 3 14 14 66 26 115 11 50 22 99 23
110 2 11 22 106 45 210 23 105 43 199 46 210 2 11 10 52 18 90 9 39 18 81 20
95 3 14 8 36 11 50 7 33 25 119 31 150 2 14 9 45 14 70 5 25 12 59 15 75 7 37
13 60 15 60 4 0 23 106 24 133 1 12 4 22 8 22 5 0 7 3 7 8 -1 4 0 9 1 12 1 3
3 14 5 25 2 11 8 43 14 70 17 75 21 92 37 170 9 38 18 81 21 95 3 14 6 32 7
40 1 9 5 20 8 25 3 6 8 26 12 45 12 68 16 85 26 131 10 42 17 75 19 90 1 3
115 5 254 6 356 0 436 8 607 63 234 76 449 243 611 475 38 54 112 195 102 195
-3 0 -1 6 5 13 11 13 54 150 58 182 1 11 5 43 10 70 9 57 10 242 1 295 -15 87
-60 202 -94 238 -7 7 -13 18 -13 24 0 5 -33 42 -74 82 -69 68 -200 151 -252
159 -11 1 -23 5 -29 8 -5 4 -28 10 -50 14 -22 5 -47 10 -55 11 -65 13 -278 22
-662 28 -87 1 -160 4 -163 7 -4 4 17 140 29 184 12 46 27 129 31 166 2 24 4
44 5 44 1 0 3 16 5 35 3 32 13 91 19 115 2 6 6 24 10 40 15 60 60 161 94 209
70 100 168 158 312 186 54 11 231 14 280 5 14 -2 39 -6 55 -9 58 -9 193 -46
239 -66 26 -11 48 -20 51 -20 3 0 26 -10 52 -21 92 -39 244 -86 343 -105 111
-21 300 1 405 46 17 7 32 14 35 14 33 6 240 150 240 167 0 5 4 9 10 9 15 0
157 156 166 183 3 9 9 17 14 17 5 0 12 9 15 20 3 11 12 26 18 32 34 36 115
222 131 303 4 17 9 41 12 55 3 14 8 67 11 118 22 362 -170 642 -570 832 -108
51 -282 113 -407 145 -3 0 -23 5 -45 10 -22 4 -44 9 -50 11 -5 1 -26 5 -45 8
-19 4 -42 9 -50 11 -9 3 -34 7 -55 10 -22 2 -56 7 -75 10 -32 4 -70 9 -185 21
-52 5 -512 13 -517 9z m-3568 -8349 c0 -3 -9 -44 -21 -93 -12 -48 -23 -99 -26
-113 -2 -14 -9 -43 -15 -65 -5 -22 -12 -51 -15 -65 -4 -22 -15 -73 -29 -135
-3 -11 -7 -29 -9 -40 -3 -11 -20 -91 -40 -177 -19 -86 -37 -167 -39 -180 -3
-13 -5 -24 -7 -25 -1 -2 -2 -6 -3 -10 -23 -86 -75 -253 -84 -267 -3 -6 -7 -15
-9 -21 -3 -19 -28 -80 -34 -85 -3 -3 -11 -21 -19 -40 -8 -19 -24 -52 -37 -72
-13 -21 -23 -42 -23 -48 0 -5 -4 -10 -10 -10 -5 0 -10 -7 -10 -15 0 -8 -4 -15
-10 -15 -5 0 -10 -5 -10 -11 0 -21 -114 -150 -177 -200 -109 -87 -265 -125
-403 -98 -58 12 -166 60 -197 88 -10 9 -29 24 -43 34 -77 53 -155 153 -178
227 -15 47 0 295 19 332 5 9 9 23 9 32 0 8 5 27 12 43 6 15 12 33 13 38 2 6
12 32 24 57 11 26 21 52 21 57 0 6 5 11 10 11 6 0 10 5 10 10 0 15 91 148 129
188 17 18 31 37 31 43 0 5 3 9 8 9 4 0 32 24 63 53 112 103 167 144 309 229
66 40 176 99 190 103 3 1 46 21 95 44 91 42 101 47 165 74 35 15 229 86 285
105 33 11 55 14 55 8z"/>
<path d="M8009 2306 c-2 -2 -26 -6 -54 -10 -64 -8 -84 -12 -117 -25 -16 -6
-28 -8 -28 -5 0 4 -6 2 -12 -3 -15 -12 -90 -38 -100 -35 -5 1 -8 -2 -8 -7 0
-10 -27 -21 -44 -20 -5 0 -12 -3 -15 -8 -3 -4 -40 -30 -81 -58 -80 -53 -250
-216 -250 -239 0 -3 -12 -22 -26 -43 -56 -82 -124 -245 -139 -330 -3 -18 -8
-48 -11 -65 -21 -111 -4 -320 37 -447 64 -202 224 -413 397 -525 67 -44 209
-115 242 -121 8 -2 42 -10 75 -18 206 -53 444 -32 635 56 36 17 67 31 70 31
14 3 93 56 151 102 269 213 412 565 368 907 -13 99 -50 218 -95 310 -70 141
-182 274 -307 366 -95 70 -254 142 -367 168 -61 14 -311 28 -321 19z"/>
</g>
</svg>
